<?xml version="1.0" standalone="no"?><!DOCTYPE svg PUBLIC "-//W3C//DTD SVG 1.1//EN" "http://www.w3.org/Graphics/SVG/1.1/DTD/svg11.dtd"><svg class="icon" width="200px" height="200.00px" viewBox="0 0 1024 1024" version="1.1" xmlns="http://www.w3.org/2000/svg"><path d="M902.095238 314.514286V853.333333a97.52381 97.52381 0 0 1-97.523809 97.52381H219.428571a97.52381 97.52381 0 0 1-97.523809-97.52381V170.666667a97.52381 97.52381 0 0 1 97.523809-97.52381h441.295239z" fill="#BABABA" /><path d="M660.72381 216.990476V73.142857l241.371428 241.371429h-143.847619a97.52381 97.52381 0 0 1-97.523809-97.52381z" fill="#979797" /><path d="M701.927619 615.375238a94.841905 94.841905 0 0 1-94.841905 95.085714h-190.171428a94.841905 94.841905 0 0 1-9.508572-189.44 104.838095 104.838095 0 0 1 209.188572 0 94.841905 94.841905 0 0 1 85.333333 94.354286z" fill="#FFFFFF" /></svg>