<?xml version="1.0" standalone="no"?><!DOCTYPE svg PUBLIC "-//W3C//DTD SVG 1.1//EN" "http://www.w3.org/Graphics/SVG/1.1/DTD/svg11.dtd"><svg class="icon" width="128px" height="118.83px" viewBox="0 0 1103 1024" version="1.1" xmlns="http://www.w3.org/2000/svg"><path d="M958.921125 1024H136.97748C61.622799 1024 0 963.138624 0 888.72916V624.987779C0 597.944113 20.558437 577.648236 41.090618 577.648236c20.558437 0 47.943431 20.295877 47.943431 40.565498v270.515426c0 27.043666 20.558437 47.365799 47.943431 47.365798h821.943645c27.384994 0 47.943431-20.295877 47.943431-47.365798V624.987779c0-27.043666 20.532181-47.339543 47.94343-47.339543 27.384994 0 47.943431 20.295877 47.943431 47.339543v263.741381C1095.924861 963.138624 1034.249549 1024 958.921125 1024M582.804124 720.349521l274.112495-257.229897c13.679369-19.797014 13.679369-46.18428-6.879068-59.364784-20.558437-13.206761-41.116874-13.206761-61.675312 0l-274.086239 257.229896c-20.558437 19.797014-20.558437 46.158024 0 59.338529 20.558437 19.797014 47.969687 19.797014 68.528124 0M251.768651 472.624291l274.821407 273.062256c20.610949 21.004789 48.100967 21.004789 61.832847 0 20.610949-21.004789 20.610949-49.019926 0-63.014367L313.601498 409.609925c-20.610949-21.004789-48.100967-21.004789-61.832847 0-20.610949 13.994441-20.610949 42.009578 0 63.014366M498.863736 42.813799v677.168138c0 27.647553 17.959095 41.458202 41.904554 41.458202 17.959095 0 35.918189-20.742229 35.918189-41.458202V42.813799C582.672844 15.166245 558.727385-5.549728 540.76829 1.355597c-23.945459 0-35.918189 13.810649-41.904554 41.458202" fill="#dbdbdb" /></svg>