<?xml version="1.0" encoding="UTF-8"?>
<svg width="128px" height="128px" viewBox="0 0 128 128" version="1.1" xmlns="http://www.w3.org/2000/svg" xmlns:xlink="http://www.w3.org/1999/xlink">
    <!-- Generator: Sketch 63.1 (92452) - https://sketch.com -->
    <title>形状</title>
    <desc>Created with Sketch.</desc>
    <g id="页面-1" stroke="none" stroke-width="1" fill="none" fill-rule="evenodd">
        <g id="file-sharing" fill="#3F81C1" fill-rule="nonzero">
            <path d="M128,0 L128,128 L0,128 L0,0 L128,0 Z M86.1622857,28.0137142 C79.6525715,28.0137142 74.4594286,33.28 74.4594286,39.7165714 C74.4594285,40.3748572 74.5325714,41.0331429 74.6788571,41.6914286 L74.6788571,41.6914286 L56.2468571,52.3702857 C53.4674286,49.2251429 49.5177142,47.2502857 45.056,47.2502857 C36.7908571,47.2502856 30.0617143,53.9794285 30.0617143,62.2445714 C30.0617143,70.5097142 36.7908571,77.2388571 45.056,77.2388571 C47.616,77.2388571 49.9565714,76.5074286 52.0777142,75.4102857 L52.0777142,75.4102857 L63.7074286,87.04 C63.1222856,88.4297142 62.8297143,89.8925714 62.8297143,91.4285714 C62.8297143,97.9382857 68.022857,103.131429 74.5325714,103.131429 C81.0422857,103.131429 86.2354287,97.9382856 86.2354286,91.4285714 C86.2354285,84.9188571 80.9691428,79.7257142 74.5325714,79.7257142 C72.4114286,79.7257142 70.4365715,80.3108571 68.6811429,81.3348571 L68.6811429,81.3348571 L57.7097143,70.3634286 C59.2457144,67.9497144 60.1234286,65.1702857 60.1234286,62.1714286 C60.1234285,61.0742857 59.9771429,59.9771429 59.7577142,58.9531429 L59.7577142,58.9531429 L78.2628571,48.2011429 C80.384,50.176 83.0902857,51.3462857 86.1622857,51.3462857 C92.5988571,51.3462856 97.8651429,46.2262856 97.8651429,39.7165714 C97.8651429,33.2068571 92.672,28.0137142 86.1622857,28.0137142 Z" id="形状"></path>
        </g>
    </g>
</svg>