<?xml version="1.0" standalone="no"?><!DOCTYPE svg PUBLIC "-//W3C//DTD SVG 1.1//EN" "http://www.w3.org/Graphics/SVG/1.1/DTD/svg11.dtd"><svg t="1720841903851" class="icon" viewBox="0 0 1024 1024" version="1.1" xmlns="http://www.w3.org/2000/svg" p-id="5044" xmlns:xlink="http://www.w3.org/1999/xlink" width="128" height="128"><path d="M979.700499 468.552413h-44.725457a425.956739 425.956739 0 0 0-381.231282-383.361065v-42.595674a42.595674 42.595674 0 0 0-85.191347 0v42.595674a425.956739 425.956739 0 0 0-383.361065 383.361065H42.595674a42.595674 42.595674 0 0 0 0 85.191347h42.595674a425.956739 425.956739 0 0 0 383.361065 381.231282v44.725457a42.595674 42.595674 0 1 0 85.191347 0v-42.595674a425.956739 425.956739 0 0 0 381.231282-383.361065H979.700499a42.595674 42.595674 0 0 0 0-85.191347z m-425.956739 383.361065v-42.595674a42.595674 42.595674 0 0 0-85.191347 0v42.595674a340.765391 340.765391 0 0 1-295.18802-298.169718H212.978369a42.595674 42.595674 0 0 0 0-85.191347h-39.613976A340.765391 340.765391 0 0 1 468.552413 173.364393v39.613976a42.595674 42.595674 0 1 0 85.191347 0v-39.613976a340.765391 340.765391 0 0 1 295.18802 295.18802H809.317804a42.595674 42.595674 0 0 0 0 85.191347h39.613976a340.765391 340.765391 0 0 1-295.18802 298.169718z" fill="#DBDBDB" p-id="5045"></path><path d="M511.148087 512.851913m-127.787022 0a127.787022 127.787022 0 1 0 255.574043 0 127.787022 127.787022 0 1 0-255.574043 0Z" fill="#DBDBDB" p-id="5046"></path></svg>