<?xml version="1.0" encoding="UTF-8"?>
<svg width="96px" height="91px" viewBox="0 0 96 91" version="1.1" xmlns="http://www.w3.org/2000/svg" xmlns:xlink="http://www.w3.org/1999/xlink">
    <!-- Generator: Sketch 63.1 (92452) - https://sketch.com -->
    <title>list_one_loop@2x</title>
    <desc>Created with Sketch.</desc>
    <g id="页面-1" stroke="none" stroke-width="1" fill="none" fill-rule="evenodd">
        <g id="list_one_loop" transform="translate(0.000000, 0.125000)" fill="#DBDBDB" fill-rule="nonzero">
            <path d="M96,24.075 C96,10.475 85.6,0.075 72,0.075 C61.6,0.075 53.6,6.475 49.6,15.275 L8.8,15.275 C6.4,15.275 4,16.075 2.4,17.675 C0.8,19.275 -1.77635684e-15,21.675 -1.77635684e-15,24.075 L-1.77635684e-15,72.075 C-1.77635684e-15,74.475 0.8,76.875 2.4,78.475 C4,80.075 6.4,80.875 8.8,80.875 L14.4,80.875 L14.4,75.275 L8.8,75.275 C8,75.275 7.2,75.275 6.4,74.475 C5.6,73.675 5.6,72.875 5.6,72.075 L5.6,24.075 C5.6,23.275 5.6,22.475 6.4,21.675 C7.2,21.675 8,20.875 8.8,20.875 L48,20.875 L48,24.075 C48,37.675 58.4,48.075 72,48.075 C74.4,48.075 76,48.075 77.6,47.275 L77.6,72.075 C77.6,72.875 77.6,73.675 76.8,74.475 C76,75.275 75.2,75.275 74.4,75.275 L46.4,75.275 L46.4,66.475 L28.8,78.475 L46.4,90.475 L46.4,81.675 L75.2,81.675 C77.6,81.675 80,80.875 81.6,79.275 C83.2,77.675 84,75.275 84,72.875 L84,44.875 C91.2,40.875 96,32.875 96,24.075 Z M72,41.675 C62.4,41.675 54.4,33.675 54.4,24.075 C54.4,14.475 62.4,6.475 72,6.475 C81.6,6.475 89.6,14.475 89.6,24.075 C89.6,33.675 81.6,41.675 72,41.675 Z M68.8,36.075 L74.4,36.075 L74.4,12.075 L68.8,12.075 L68.8,36.075 Z" id="形状"></path>
        </g>
    </g>
</svg>