<?xml version="1.0" encoding="UTF-8"?>
<svg width="60px" height="58px" viewBox="0 0 60 58" version="1.1" xmlns="http://www.w3.org/2000/svg" xmlns:xlink="http://www.w3.org/1999/xlink">
    <!-- Generator: Sketch 63.1 (92452) - https://sketch.com -->
    <title>list_next@2x</title>
    <desc>Created with Sketch.</desc>
    <g id="页面-1" stroke="none" stroke-width="1" fill="none" fill-rule="evenodd">
        <g id="list_next" transform="translate(3.000000, 6.125000)" fill="#DBDBDB" fill-rule="nonzero">
            <path d="M4.4875,2.3625 L34.0875,20.675 C35.7875,21.725 35.7875,24.0375 34.0875,25.0875 L4.4875,43.3875 C2.5875,44.5625 0.05,43.3 0.05,41.175 L0.05,4.5625 C0.0625,2.45 2.6,1.1875 4.4875,2.3625 Z M41.4875,45.675 C40.1375,45.675 39.0375,44.15 39.0375,42.275 L39.0375,3.475 C39.0375,1.6 40.1375,0.075 41.4875,0.075 C42.8375,0.075 43.9375,1.6 43.9375,3.475 L43.9375,42.2875 C43.9375,44.1625 42.85,45.675 41.4875,45.675 Z" id="形状"></path>
        </g>
    </g>
</svg>