<?xml version="1.0" encoding="UTF-8"?>
<svg width="96px" height="91px" viewBox="0 0 96 91" version="1.1" xmlns="http://www.w3.org/2000/svg" xmlns:xlink="http://www.w3.org/1999/xlink">
    <!-- Generator: Sketch 63.1 (92452) - https://sketch.com -->
    <title>路径@2x</title>
    <desc>Created with Sketch.</desc>
    <g id="页面-1" stroke="none" stroke-width="1" fill="none" fill-rule="evenodd">
        <g id="list_order" transform="translate(0.375000, 15.375000)" fill="#DBDBDB" fill-rule="nonzero">
            <path d="M80.825,2.425 C79.225,0.825 76.825,0.025 74.425,0.025 L8.825,0.025 C6.425,0.025 4.025,0.825 2.425,2.425 C0.825,4.825 0.025,6.425 0.025,8.825 L0.025,56.825 C0.025,59.225 0.825,61.625 2.425,63.225 C4.025,64.825 6.425,65.625 8.825,65.625 L14.425,65.625 L14.425,59.225 L8.825,59.225 C8.025,59.225 7.225,59.225 6.425,58.425 C5.625,57.625 5.625,56.825 5.625,56.025 L5.625,8.025 C5.625,7.225 5.625,6.425 6.425,5.625 C7.225,4.825 8.025,4.825 8.825,4.825 L74.425,4.825 C75.225,4.825 76.025,4.825 76.825,5.625 C77.625,6.425 77.625,7.225 77.625,8.025 L77.625,56.025 C77.625,56.825 77.625,57.625 76.825,58.425 C76.025,59.225 75.225,59.225 74.425,59.225 L41.625,59.225 L41.625,51.225 L24.025,63.225 L41.625,75.225 L41.625,66.425 L74.425,66.425 C76.825,66.425 79.225,65.625 80.825,64.025 C82.425,62.425 83.225,60.025 83.225,57.625 L83.225,9.625 C83.225,6.425 82.425,4.825 80.825,2.425 Z" id="路径"></path>
        </g>
    </g>
</svg>